HIERARCHY
ROOT Hips
{
	OFFSET 0.000000 83.214638 0.000000
	CHANNELS 6 Xposition Yposition Zposition Xrotation Yrotation Zrotation
	JOINT Pelvis
	{
		OFFSET 0.000000 0.000000 0.000000
		CHANNELS 3 Xrotation Yrotation Zrotation
		JOINT LeftUpLeg
		{
			OFFSET 8.479700 -4.795502 -0.379100
			CHANNELS 3 Xrotation Yrotation Zrotation
			JOINT LeftLeg
			{
				OFFSET 0.024144 -32.555107 0.112900
				CHANNELS 3 Xrotation Yrotation Zrotation
				JOINT LeftFoot
				{
					OFFSET -0.024144 -32.638630 -3.012600
					CHANNELS 3 Xrotation Yrotation Zrotation
					JOINT LeftToeBase
					{
						OFFSET 0.970200 -13.225400 11.864200
						CHANNELS 3 Xrotation Yrotation Zrotation
						End Site
						{
							OFFSET 0.000000 12.319262 0.000000
						}
					}
					JOINT LFootTongue
					{
						OFFSET 1.142400 -1.059800 6.665200
						CHANNELS 3 Xrotation Yrotation Zrotation
						End Site
						{
							OFFSET 0.000000 12.319262 0.000000
						}
					}
				}
				JOINT LeftPantLeg
				{
					OFFSET 0.918482 -16.533964 -2.284700
					CHANNELS 3 Xrotation Yrotation Zrotation
					End Site
					{
						OFFSET 0.350399 24.744368 0.000000
					}
				}
			}
		}
		JOINT RightUpLeg
		{
			OFFSET -8.479700 -4.795502 -0.379100
			CHANNELS 3 Xrotation Yrotation Zrotation
			JOINT RightLeg
			{
				OFFSET -0.023144 -32.555092 0.112900
				CHANNELS 3 Xrotation Yrotation Zrotation
				JOINT RightFoot
				{
					OFFSET 0.023144 -32.638641 -3.012700
					CHANNELS 3 Xrotation Yrotation Zrotation
					JOINT RightToeBase
					{
						OFFSET -0.970200 -13.225400 11.864200
						CHANNELS 3 Xrotation Yrotation Zrotation
						End Site
						{
							OFFSET 0.000000 12.319244 0.000000
						}
					}
					JOINT RFootTongue
					{
						OFFSET -1.142200 -1.059800 6.665200
						CHANNELS 3 Xrotation Yrotation Zrotation
						End Site
						{
							OFFSET 0.000000 12.319243 0.000000
						}
					}
				}
				JOINT RightPantLeg
				{
					OFFSET -0.919482 -16.533978 -2.284800
					CHANNELS 3 Xrotation Yrotation Zrotation
					End Site
					{
						OFFSET -0.350400 24.744419 0.000000
					}
				}
			}
		}
	}
	JOINT Spine
	{
		OFFSET 0.000000 7.722000 1.166200
		CHANNELS 3 Xrotation Yrotation Zrotation
		JOINT Spine1
		{
			OFFSET 0.000000 12.024101 0.248800
			CHANNELS 3 Xrotation Yrotation Zrotation
			JOINT Spine2
			{
				OFFSET 0.000000 11.502998 -0.491200
				CHANNELS 3 Xrotation Yrotation Zrotation
				JOINT Neck
				{
					OFFSET 0.000000 18.430702 -3.123100
					CHANNELS 3 Xrotation Yrotation Zrotation
					JOINT Head
					{
						OFFSET 0.000000 9.051102 1.034000
						CHANNELS 3 Xrotation Yrotation Zrotation
						JOINT HairB
						{
							OFFSET 0.208400 24.786102 24.822300
							CHANNELS 3 Xrotation Yrotation Zrotation
							End Site
							{
								OFFSET 0.000000 32.263779 0.000000
							}
						}
						JOINT HairA
						{
							OFFSET -7.081100 24.428299 23.196600
							CHANNELS 3 Xrotation Yrotation Zrotation
							End Site
							{
								OFFSET 0.000000 32.263779 0.000000
							}
						}
						JOINT Hat
						{
							OFFSET 16.728800 15.048294 -15.439601
							CHANNELS 3 Xrotation Yrotation Zrotation
							End Site
							{
								OFFSET 0.000000 32.263779 0.000000
							}
						}
					}
				}
				JOINT LeftShoulder
				{
					OFFSET 6.197800 13.665199 -4.064700
					CHANNELS 3 Xrotation Yrotation Zrotation
					JOINT LeftArm
					{
						OFFSET 7.778100 -0.187103 -1.709300
						CHANNELS 3 Xrotation Yrotation Zrotation
						JOINT LeftForeArm
						{
							OFFSET 22.049376 0.000000 0.000000
							CHANNELS 3 Xrotation Yrotation Zrotation
							JOINT LeftHand
							{
								OFFSET 23.009392 0.000000 0.000000
								CHANNELS 3 Xrotation Yrotation Zrotation
								JOINT LeftHandThumb1
								{
									OFFSET 3.507191 -2.063065 3.133727
									CHANNELS 3 Xrotation Yrotation Zrotation
									JOINT LeftHandThumb2
									{
										OFFSET 3.101337 -1.790558 1.790558
										CHANNELS 3 Xrotation Yrotation Zrotation
										JOINT LeftHandThumb3
										{
											OFFSET 3.058640 -1.765907 1.765906
											CHANNELS 3 Xrotation Yrotation Zrotation
											End Site
											{
												OFFSET -0.415260 3.926476 -0.049563
											}
										}
									}
								}
								JOINT LeftHandIndex1
								{
									OFFSET 11.334419 -0.901459 3.706815
									CHANNELS 3 Xrotation Yrotation Zrotation
									JOINT LeftHandIndex2
									{
										OFFSET 3.283112 0.000000 0.000000
										CHANNELS 3 Xrotation Yrotation Zrotation
										JOINT LeftHandIndex3
										{
											OFFSET 3.323853 0.000000 0.000000
											CHANNELS 3 Xrotation Yrotation Zrotation
											End Site
											{
												OFFSET -1.135597 3.097809 0.402452
											}
										}
									}
								}
								JOINT LeftHandMiddle1
								{
									OFFSET 11.335861 0.000000 0.000000
									CHANNELS 3 Xrotation Yrotation Zrotation
									JOINT LeftHandMiddle2
									{
										OFFSET 3.410492 0.000000 0.000000
										CHANNELS 3 Xrotation Yrotation Zrotation
										JOINT LeftHandMiddle3
										{
											OFFSET 3.312172 0.000000 0.000000
											CHANNELS 3 Xrotation Yrotation Zrotation
											End Site
											{
												OFFSET -1.150200 3.080154 0.400270
											}
										}
									}
								}
								JOINT LeftHandRing1
								{
									OFFSET 11.514786 -0.013176 -3.003090
									CHANNELS 3 Xrotation Yrotation Zrotation
									JOINT LeftHandRing2
									{
										OFFSET 3.053307 0.000000 0.000000
										CHANNELS 3 Xrotation Yrotation Zrotation
										JOINT LeftHandRing3
										{
											OFFSET 3.295807 0.000000 0.000000
											CHANNELS 3 Xrotation Yrotation Zrotation
											End Site
											{
												OFFSET -1.281006 3.013344 0.375733
											}
										}
									}
								}
								JOINT LeftHandPinky1
								{
									OFFSET 10.518692 -0.960396 -5.730441
									CHANNELS 3 Xrotation Yrotation Zrotation
									JOINT LeftHandPinky2
									{
										OFFSET 2.861649 0.000000 0.000000
										CHANNELS 3 Xrotation Yrotation Zrotation
										JOINT LeftHandPinky3
										{
											OFFSET 2.863380 0.000000 0.000000
											CHANNELS 3 Xrotation Yrotation Zrotation
											End Site
											{
												OFFSET -0.843597 2.711159 0.369971
											}
										}
									}
								}
							}
							JOINT LSleeve
							{
								OFFSET 6.676277 -0.344902 -1.011730
								CHANNELS 3 Xrotation Yrotation Zrotation
								End Site
								{
									OFFSET 0.000000 14.885353 0.000000
								}
							}
						}
					}
				}
				JOINT RightShoulder
				{
					OFFSET -6.197800 13.665199 -4.064700
					CHANNELS 3 Xrotation Yrotation Zrotation
					JOINT RightArm
					{
						OFFSET -7.778100 -0.187103 -1.709300
						CHANNELS 3 Xrotation Yrotation Zrotation
						JOINT RightForeArm
						{
							OFFSET -22.049376 0.000000 0.000000
							CHANNELS 3 Xrotation Yrotation Zrotation
							JOINT RightHand
							{
								OFFSET -23.009392 0.000000 0.000000
								CHANNELS 3 Xrotation Yrotation Zrotation
								JOINT RightHandThumb1
								{
									OFFSET -3.507191 -2.063065 3.133727
									CHANNELS 3 Xrotation Yrotation Zrotation
									JOINT RightHandThumb2
									{
										OFFSET -3.101337 -1.790558 1.790558
										CHANNELS 3 Xrotation Yrotation Zrotation
										JOINT RightHandThumb3
										{
											OFFSET -3.058640 -1.765907 1.765906
											CHANNELS 3 Xrotation Yrotation Zrotation
											End Site
											{
												OFFSET 0.415260 3.926476 -0.049563
											}
										}
									}
								}
								JOINT RightHandIndex1
								{
									OFFSET -11.334419 -0.901459 3.706815
									CHANNELS 3 Xrotation Yrotation Zrotation
									JOINT RightHandIndex2
									{
										OFFSET -3.283112 0.000000 0.000000
										CHANNELS 3 Xrotation Yrotation Zrotation
										JOINT RightHandIndex3
										{
											OFFSET -3.323853 0.000000 0.000000
											CHANNELS 3 Xrotation Yrotation Zrotation
											End Site
											{
												OFFSET 1.135597 3.097809 0.402452
											}
										}
									}
								}
								JOINT RightHandMiddle1
								{
									OFFSET -11.335861 0.000000 0.000000
									CHANNELS 3 Xrotation Yrotation Zrotation
									JOINT RightHandMiddle2
									{
										OFFSET -3.410492 0.000000 0.000000
										CHANNELS 3 Xrotation Yrotation Zrotation
										JOINT RightHandMiddle3
										{
											OFFSET -3.312172 0.000000 0.000000
											CHANNELS 3 Xrotation Yrotation Zrotation
											End Site
											{
												OFFSET 1.150200 3.080154 0.400270
											}
										}
									}
								}
								JOINT RightHandRing1
								{
									OFFSET -11.514786 -0.013176 -3.003090
									CHANNELS 3 Xrotation Yrotation Zrotation
									JOINT RightHandRing2
									{
										OFFSET -3.053307 0.000000 0.000000
										CHANNELS 3 Xrotation Yrotation Zrotation
										JOINT RightHandRing3
										{
											OFFSET -3.295807 0.000000 0.000000
											CHANNELS 3 Xrotation Yrotation Zrotation
											End Site
											{
												OFFSET 1.281006 3.013344 0.375733
											}
										}
									}
								}
								JOINT RightHandPinky1
								{
									OFFSET -10.518692 -0.960396 -5.730441
									CHANNELS 3 Xrotation Yrotation Zrotation
									JOINT RightHandPinky2
									{
										OFFSET -2.861649 0.000000 0.000000
										CHANNELS 3 Xrotation Yrotation Zrotation
										JOINT RightHandPinky3
										{
											OFFSET -2.863380 0.000000 0.000000
											CHANNELS 3 Xrotation Yrotation Zrotation
											End Site
											{
												OFFSET 0.843597 2.711159 0.369971
											}
										}
									}
								}
							}
							JOINT RSleeve
							{
								OFFSET -6.676277 -0.344902 -1.011730
								CHANNELS 3 Xrotation Yrotation Zrotation
								End Site
								{
									OFFSET 0.000000 14.885353 0.000000
								}
							}
						}
					}
				}
				JOINT Backpack
				{
					OFFSET 0.000000 -2.471497 36.677502
					CHANNELS 3 Xrotation Yrotation Zrotation
					End Site
					{
						OFFSET 0.000000 20.427315 0.000000
					}
				}
				JOINT Hood
				{
					OFFSET 0.000000 18.754097 -10.431000
					CHANNELS 3 Xrotation Yrotation Zrotation
					JOINT Hood1
					{
						OFFSET 0.000000 -5.011002 -7.685901
						CHANNELS 3 Xrotation Yrotation Zrotation
						End Site
						{
							OFFSET 0.000000 9.175140 0.000000
						}
					}
				}
				JOINT LHoodieString
				{
					OFFSET 5.250500 16.397697 3.089900
					CHANNELS 3 Xrotation Yrotation Zrotation
					JOINT LHoodieString1
					{
						OFFSET 0.257700 -6.364304 3.694600
						CHANNELS 3 Xrotation Yrotation Zrotation
						JOINT LHoodieString2
						{
							OFFSET 0.000000 -9.643799 2.679100
							CHANNELS 3 Xrotation Yrotation Zrotation
							End Site
							{
								OFFSET 0.000000 10.009018 0.000000
							}
						}
					}
				}
				JOINT RHoodieString
				{
					OFFSET -5.250500 16.397697 3.089900
					CHANNELS 3 Xrotation Yrotation Zrotation
					JOINT RHoodieString1
					{
						OFFSET -0.257700 -6.364304 3.694600
						CHANNELS 3 Xrotation Yrotation Zrotation
						JOINT RHoodieString2
						{
							OFFSET 0.000000 -9.643799 2.679100
							CHANNELS 3 Xrotation Yrotation Zrotation
							End Site
							{
								OFFSET 0.000000 10.009018 0.000000
							}
						}
					}
				}
			}
			JOINT LBackpack_Strap
			{
				OFFSET 15.223200 -7.719803 -6.610900
				CHANNELS 3 Xrotation Yrotation Zrotation
				End Site
				{
					OFFSET 0.000000 16.040596 0.000000
				}
			}
			JOINT RBackpack_Strap
			{
				OFFSET -15.223000 -7.719803 -6.610900
				CHANNELS 3 Xrotation Yrotation Zrotation
				End Site
				{
					OFFSET 0.000000 16.040596 0.000000
				}
			}
		}
	}
	JOINT BoyFacialAnim_Joint
	{
		OFFSET 1.000000 -82.208099 -1.550900
		CHANNELS 3 Xrotation Yrotation Zrotation
		End Site
		{
			OFFSET 0.000000 30.012791 0.000000
		}
	}
}
MOTION
Frames: 4
Frame Time: 0.033333
-0.383626 68.296417 -0.815979 -54.703497 -0.269577 3.545380 -0.000001 0.000000 0.000000 -44.123630 2.540510 -1.322887 28.599804 5.296517 4.204636 6.819877 0.005586 -3.597769 0.000003 0.000000 -0.000000 0.000003 0.000000 -0.000000 -0.000001 -0.000000 0.000000 -48.881355 -3.473535 -5.197194 120.016778 -12.633331 -4.074025 50.217064 -4.917127 8.216647 -0.000000 0.000000 -0.000002 -0.000000 0.000000 -0.000002 0.000000 -0.000001 0.000000 20.058917 -1.968969 -3.783329 13.262419 -0.209714 -0.130494 15.673326 -0.201149 -0.137950 -9.300565 -0.132080 7.691338 19.799810 -4.250587 17.138618 -0.000000 0.000000 -0.000001 -0.000000 0.000000 -0.000001 -0.000000 0.000000 -0.000001 8.987218 4.741963 10.201974 18.443937 11.076297 -93.642618 0.000003 -13.603198 0.000003 -18.665707 -12.769434 70.452889 -9.361259 -5.540517 12.940469 2.306155 -3.642034 11.166596 0.000001 -0.000002 0.000000 2.686574 -6.442531 -0.493837 0.156194 2.047585 -12.538247 0.000000 -0.000000 0.000002 0.590039 1.732701 5.139458 0.285322 2.614338 -18.169753 -0.000000 0.000002 -0.000001 -0.187150 8.059779 6.563541 0.296452 1.674454 -13.674021 0.000001 0.000002 0.000000 -2.113103 17.956759 9.628495 0.001124 0.819699 -9.911315 0.000001 -0.000003 0.000001 -0.000001 0.000000 -0.000001 9.462607 24.875918 -11.795650 25.011772 -18.513807 101.649997 0.000000 13.832782 -0.000010 -38.753585 15.919909 -68.126827 -4.903591 3.657267 -19.476658 5.922347 1.996262 0.926751 -0.000001 0.000002 0.000000 -0.473080 6.930550 3.690442 0.018130 -0.783074 0.000011 0.000002 -0.000002 0.000003 0.203187 -2.961125 1.326236 0.034229 -0.814742 -0.000009 0.000001 0.000003 0.000000 -0.266249 -11.370661 -2.735464 0.001906 -0.338851 -0.000053 0.000000 0.000001 0.000001 -7.043195 -12.415556 -8.057657 -0.000471 0.176067 0.018893 -0.000001 0.000003 0.000001 -0.000000 0.000000 0.000000 -0.000000 -0.000000 -0.000000 -0.000000 -0.000000 -0.000000 -0.000000 -0.000000 -0.000000 -0.000000 -0.000000 -0.000000 -0.000000 -0.000000 -0.000000 -0.000000 -0.000000 -0.000000 -0.000000 -0.000000 -0.000000 -0.000000 -0.000000 -0.000000 -0.000000 -0.000000 -0.000000 -0.000001 -0.000000 -0.000000 -0.000001 -0.000000 -0.000000 -0.000001 0.000000 0.000000 
-0.368089 68.756813 -0.992546 -54.884972 -0.466412 3.428179 -0.000001 0.000000 -0.000000 -42.522401 2.744174 -1.198133 28.086153 7.155993 3.910203 6.736877 -0.071726 -2.323250 -0.000000 -0.000001 -0.000000 -0.000000 -0.000001 -0.000000 -0.000000 -0.000000 -0.000000 -46.062574 -2.707503 -5.083930 112.560739 -12.223131 -3.573380 44.960646 -6.902503 7.970462 0.000001 0.000001 -0.000002 0.000001 0.000001 -0.000002 0.000002 0.000000 0.000000 20.170626 -1.753083 -3.633355 13.289859 -0.167299 -0.166028 14.503099 -0.158998 -0.173647 -8.803808 -0.057840 7.033253 20.846043 -4.113715 16.341472 -0.000000 0.000000 0.000001 -0.000000 0.000000 0.000001 -0.000000 0.000000 0.000001 8.984086 4.663789 10.257898 21.263200 10.889104 -93.790074 -0.000003 -17.387105 -0.000011 -18.405193 -10.685876 71.088759 -9.361260 -5.540516 12.940470 2.306157 -3.642035 11.166597 -0.000001 0.000001 0.000003 2.686574 -6.442529 -0.493836 0.156193 2.047586 -12.538242 0.000001 -0.000003 -0.000000 0.590040 1.732700 5.139460 0.285322 2.614336 -18.169749 0.000000 -0.000001 -0.000000 -0.187149 8.059780 6.563541 0.296450 1.674457 -13.674025 -0.000001 0.000005 0.000001 -2.113101 17.956764 9.628495 0.001125 0.819700 -9.911315 -0.000000 0.000003 0.000000 -0.000000 0.000000 0.000001 9.579917 25.405788 -12.302376 26.884431 -17.823935 102.885537 0.000000 15.185543 -0.000003 -39.113065 15.346055 -68.774773 -4.903590 3.657271 -19.476658 5.922348 1.996269 0.926751 -0.000001 0.000004 -0.000000 -0.473081 6.930552 3.690443 0.018129 -0.783071 0.000011 0.000001 -0.000000 0.000002 0.203187 -2.961123 1.326237 0.034228 -0.814742 -0.000009 0.000000 0.000003 0.000000 -0.266250 -11.370661 -2.735462 0.001907 -0.338853 -0.000050 0.000001 0.000005 0.000005 -7.043192 -12.415548 -8.057652 -0.000472 0.176065 0.018895 -0.000000 0.000001 0.000000 0.000000 -0.000000 0.000001 -0.000000 -0.000000 0.000000 -0.000000 -0.000000 0.000000 -0.000000 -0.000000 0.000000 -0.000000 -0.000000 0.000000 -0.000000 -0.000000 -0.000000 -0.000000 -0.000000 0.000000 -0.000000 -0.000000 0.000000 -0.000000 -0.000000 -0.000000 -0.000000 -0.000000 0.000000 -0.000001 -0.000000 -0.000000 -0.000001 -0.000000 -0.000000 -0.000001 0.000000 -0.000000 
-0.365387 69.256226 -1.131683 -55.015924 -0.604133 3.127173 0.000003 -0.000000 -0.000000 -40.588034 3.071601 -0.747677 28.389283 9.015918 3.454395 7.016088 -0.137581 -1.252085 0.000001 0.000000 -0.000000 0.000001 0.000000 -0.000000 -0.000001 -0.000001 -0.000000 -42.779397 -1.791949 -4.732902 103.195539 -11.955822 -3.149031 40.726236 -8.802361 8.679177 -0.000002 -0.000000 0.000002 -0.000002 -0.000000 0.000002 -0.000000 -0.000000 0.000000 20.240195 -1.641418 -3.408732 13.311713 -0.151715 -0.197671 14.268398 -0.143631 -0.205282 -8.313072 0.021617 6.088983 21.608960 -4.025365 15.117855 -0.000000 -0.000000 0.000003 -0.000000 -0.000000 0.000003 -0.000000 -0.000000 0.000003 8.982267 4.646916 10.309265 22.032845 11.012574 -93.939867 -0.000001 -18.365969 -0.000007 -18.265087 -10.179104 71.241605 -9.361260 -5.540518 12.940471 2.306155 -3.642037 11.166599 0.000000 0.000000 0.000002 2.686574 -6.442535 -0.493835 0.156193 2.047586 -12.538242 0.000002 0.000001 -0.000003 0.590040 1.732697 5.139461 0.285321 2.614338 -18.169749 0.000000 0.000001 0.000000 -0.187149 8.059779 6.563542 0.296451 1.674455 -13.674024 0.000001 -0.000001 0.000001 -2.113103 17.956759 9.628494 0.001124 0.819696 -9.911316 -0.000000 0.000001 -0.000000 -0.000001 0.000000 0.000001 9.659892 25.710734 -12.639306 27.155123 -17.323096 103.263663 0.000001 15.329253 0.000009 -39.550801 15.279131 -68.901637 -4.903593 3.657270 -19.476657 5.922346 1.996272 0.926754 0.000001 0.000000 0.000000 -0.473084 6.930551 3.690442 0.018130 -0.783072 0.000013 0.000001 0.000002 0.000002 0.203184 -2.961123 1.326236 0.034226 -0.814742 -0.000007 0.000001 0.000002 -0.000000 -0.266252 -11.370662 -2.735464 0.001904 -0.338854 -0.000052 -0.000001 -0.000002 0.000002 -7.043197 -12.415556 -8.057654 -0.000474 0.176066 0.018895 -0.000001 0.000001 -0.000001 0.000000 0.000000 0.000000 -0.000000 -0.000000 -0.000000 -0.000000 -0.000000 -0.000000 -0.000000 -0.000000 -0.000000 -0.000000 -0.000000 -0.000000 -0.000000 -0.000000 -0.000000 -0.000000 -0.000000 -0.000000 -0.000000 -0.000000 -0.000000 -0.000000 -0.000000 -0.000000 -0.000000 -0.000000 -0.000000 -0.000002 0.000000 -0.000000 -0.000002 0.000000 -0.000000 0.000003 -0.000000 -0.000000 
-0.355302 69.765930 -1.216904 -55.151281 -0.660504 2.634750 0.000000 0.000000 -0.000000 -38.423086 3.372549 -0.028610 29.975747 10.133170 2.919462 7.731740 0.542532 -0.492869 -0.000000 0.000000 -0.000001 -0.000000 0.000000 -0.000001 -0.000000 0.000001 0.000000 -39.220063 -0.899621 -4.179674 92.183798 -11.653032 -2.843037 37.166464 -10.477348 9.350996 0.000002 0.000000 -0.000000 0.000002 0.000000 -0.000000 0.000000 0.000000 0.000000 20.295108 -1.635171 -3.061050 13.330508 -0.166929 -0.216175 14.068376 -0.158983 -0.223694 -7.788337 0.072594 4.849991 21.978753 -4.047255 13.370545 0.000001 -0.000000 0.000001 0.000001 -0.000000 0.000001 0.000001 -0.000000 0.000001 8.981827 4.660327 10.344476 22.827119 11.323387 -94.228750 -0.000002 -19.147445 0.000013 -18.055692 -9.866331 71.369070 -9.361261 -5.540514 12.940472 2.306157 -3.642034 11.166601 0.000000 0.000002 0.000002 2.686574 -6.442532 -0.493838 0.156193 2.047586 -12.538244 -0.000002 0.000000 0.000002 0.590040 1.732699 5.139460 0.285322 2.614337 -18.169749 0.000001 0.000002 -0.000001 -0.187149 8.059781 6.563539 0.296451 1.674454 -13.674022 0.000001 0.000002 -0.000000 -2.113102 17.956760 9.628495 0.001126 0.819697 -9.911313 -0.000000 -0.000000 -0.000002 -0.000001 0.000000 0.000001 9.675099 25.732294 -12.714689 27.678959 -16.728926 103.274851 -0.000000 16.299695 0.000013 -39.656912 14.799987 -69.257148 -4.903591 3.657272 -19.476657 5.922345 1.996273 0.926750 0.000002 -0.000001 -0.000001 -0.473083 6.930552 3.690442 0.018130 -0.783072 0.000011 -0.000000 0.000000 0.000002 0.203187 -2.961119 1.326236 0.034229 -0.814741 -0.000009 0.000001 0.000002 -0.000002 -0.266250 -11.370659 -2.735466 0.001906 -0.338852 -0.000055 0.000000 0.000003 0.000003 -7.043193 -12.415546 -8.057654 -0.000471 0.176070 0.018895 0.000000 0.000004 -0.000001 -0.000000 0.000001 0.000001 0.000000 0.000000 0.000000 0.000000 0.000000 0.000000 0.000000 0.000000 0.000000 0.000000 0.000000 0.000000 0.000000 0.000000 -0.000000 0.000000 0.000000 0.000000 0.000000 0.000000 0.000000 0.000000 0.000000 -0.000000 0.000000 0.000000 0.000000 -0.000004 -0.000000 0.000000 -0.000004 -0.000000 0.000000 0.000000 0.000000 -0.000000 
